<svg id="rkvpBwOaf" data-name="央铋 1" xmlns="http://www.w3.org/2000/svg" viewBox="0 0 311 412">
    <style>
        @-webkit-keyframes SJjvTSvu6f_rJ1O3DdTG_Animation{0%{-webkit-transform: translate(4px, 0px);transform: translate(4px, 0px);}100%{-webkit-transform: translate(4px, 0px);transform: translate(4px, 0px);}}@keyframes SJjvTSvu6f_rJ1O3DdTG_Animation{0%{-webkit-transform: translate(4px, 0px);transform: translate(4px, 0px);}100%{-webkit-transform: translate(4px, 0px);transform: translate(4px, 0px);}}@-webkit-keyframes H1XPaHwuTz_Sy7OiP_6G_Animation{0%{-webkit-transform: scale(1, 1);transform: scale(1, 1);}50%{-webkit-transform: scale(1, 1);transform: scale(1, 1);}58.33%{-webkit-transform: scale(1.2, 1);transform: scale(1.2, 1);}66.67%{-webkit-transform: scale(1, 1);transform: scale(1, 1);}100%{-webkit-transform: scale(1, 1);transform: scale(1, 1);}}@keyframes H1XPaHwuTz_Sy7OiP_6G_Animation{0%{-webkit-transform: scale(1, 1);transform: scale(1, 1);}50%{-webkit-transform: scale(1, 1);transform: scale(1, 1);}58.33%{-webkit-transform: scale(1.2, 1);transform: scale(1.2, 1);}66.67%{-webkit-transform: scale(1, 1);transform: scale(1, 1);}100%{-webkit-transform: scale(1, 1);transform: scale(1, 1);}}@-webkit-keyframes rkGv6HPdpM_BkzSjDu6f_Animation{0%{-webkit-transform: scale(1, 1);transform: scale(1, 1);}18.89%{-webkit-transform: scale(1, 1);transform: scale(1, 1);}33.89%{-webkit-transform: scale(1.2, 0.9);transform: scale(1.2, 0.9);}50%{-webkit-transform: scale(1, 1);transform: scale(1, 1);}66.94%{-webkit-transform: scale(1, 1);transform: scale(1, 1);}83.33%{-webkit-transform: scale(1.2, 0.9);transform: scale(1.2, 0.9);}99.72%{-webkit-transform: scale(1, 1);transform: scale(1, 1);}100%{-webkit-transform: scale(1, 1);transform: scale(1, 1);}}@keyframes rkGv6HPdpM_BkzSjDu6f_Animation{0%{-webkit-transform: scale(1, 1);transform: scale(1, 1);}18.89%{-webkit-transform: scale(1, 1);transform: scale(1, 1);}33.89%{-webkit-transform: scale(1.2, 0.9);transform: scale(1.2, 0.9);}50%{-webkit-transform: scale(1, 1);transform: scale(1, 1);}66.94%{-webkit-transform: scale(1, 1);transform: scale(1, 1);}83.33%{-webkit-transform: scale(1.2, 0.9);transform: scale(1.2, 0.9);}99.72%{-webkit-transform: scale(1, 1);transform: scale(1, 1);}100%{-webkit-transform: scale(1, 1);transform: scale(1, 1);}}@-webkit-keyframes SkWvpHwdpz_BJbn5Du6z_Animation{0%{-webkit-transform: scale(1, 1);transform: scale(1, 1);}8.33%{-webkit-transform: scale(1, 1);transform: scale(1, 1);}18.61%{-webkit-transform: scale(1.2, 0.9);transform: scale(1.2, 0.9);}33.89%{-webkit-transform: scale(1, 1);transform: scale(1, 1);}58.61%{-webkit-transform: scale(1.2, 0.9);transform: scale(1.2, 0.9);}83.61%{-webkit-transform: scale(1, 1);transform: scale(1, 1);}100%{-webkit-transform: scale(1, 1);transform: scale(1, 1);}}@keyframes SkWvpHwdpz_BJbn5Du6z_Animation{0%{-webkit-transform: scale(1, 1);transform: scale(1, 1);}8.33%{-webkit-transform: scale(1, 1);transform: scale(1, 1);}18.61%{-webkit-transform: scale(1.2, 0.9);transform: scale(1.2, 0.9);}33.89%{-webkit-transform: scale(1, 1);transform: scale(1, 1);}58.61%{-webkit-transform: scale(1.2, 0.9);transform: scale(1.2, 0.9);}83.61%{-webkit-transform: scale(1, 1);transform: scale(1, 1);}100%{-webkit-transform: scale(1, 1);transform: scale(1, 1);}}@-webkit-keyframes HJlP6HvdaM_ByKW5vdTG_Animation{0%{-webkit-transform: scale(1, 1);transform: scale(1, 1);}12.78%{-webkit-transform: scale(1.3, 0.9);transform: scale(1.3, 0.9);}25.28%{-webkit-transform: scale(1, 1);transform: scale(1, 1);}41.67%{-webkit-transform: scale(1.2, 0.9);transform: scale(1.2, 0.9);}58.33%{-webkit-transform: scale(1, 1);transform: scale(1, 1);}100%{-webkit-transform: scale(1, 1);transform: scale(1, 1);}}@keyframes HJlP6HvdaM_ByKW5vdTG_Animation{0%{-webkit-transform: scale(1, 1);transform: scale(1, 1);}12.78%{-webkit-transform: scale(1.3, 0.9);transform: scale(1.3, 0.9);}25.28%{-webkit-transform: scale(1, 1);transform: scale(1, 1);}41.67%{-webkit-transform: scale(1.2, 0.9);transform: scale(1.2, 0.9);}58.33%{-webkit-transform: scale(1, 1);transform: scale(1, 1);}100%{-webkit-transform: scale(1, 1);transform: scale(1, 1);}}@-webkit-keyframes SJjvTSvu6f_Animation{0%{opacity: 1;}17.22%{opacity: 0;}33.61%{opacity: 1;}50%{opacity: 0;}66.67%{opacity: 1;}100%{opacity: 1;}}@keyframes SJjvTSvu6f_Animation{0%{opacity: 1;}17.22%{opacity: 0;}33.61%{opacity: 1;}50%{opacity: 0;}66.67%{opacity: 1;}100%{opacity: 1;}}@-webkit-keyframes ryPwaHv_aM_rJZYvP_pG_Animation{0%{-webkit-transform: rotate(0deg);transform: rotate(0deg);}100%{-webkit-transform: rotate(-360deg);transform: rotate(-360deg);}}@keyframes ryPwaHv_aM_rJZYvP_pG_Animation{0%{-webkit-transform: rotate(0deg);transform: rotate(0deg);}100%{-webkit-transform: rotate(-360deg);transform: rotate(-360deg);}}@-webkit-keyframes ryODTrPOaf_rJLIvP_aM_Animation{0%{-webkit-transform: rotate(0deg);transform: rotate(0deg);}100%{-webkit-transform: rotate(360deg);transform: rotate(360deg);}}@keyframes ryODTrPOaf_rJLIvP_aM_Animation{0%{-webkit-transform: rotate(0deg);transform: rotate(0deg);}100%{-webkit-transform: rotate(360deg);transform: rotate(360deg);}}@-webkit-keyframes SkNDprPd6f_r1mEwDuaG_Animation{0%{-webkit-transform: rotate(0deg);transform: rotate(0deg);}100%{-webkit-transform: rotate(-360deg);transform: rotate(-360deg);}}@keyframes SkNDprPd6f_r1mEwDuaG_Animation{0%{-webkit-transform: rotate(0deg);transform: rotate(0deg);}100%{-webkit-transform: rotate(-360deg);transform: rotate(-360deg);}}@-webkit-keyframes rySwTHwuaG_S1DMwP_6f_Animation{0%{-webkit-transform: rotate(0deg);transform: rotate(0deg);}100%{-webkit-transform: rotate(360deg);transform: rotate(360deg);}}@keyframes rySwTHwuaG_S1DMwP_6f_Animation{0%{-webkit-transform: rotate(0deg);transform: rotate(0deg);}100%{-webkit-transform: rotate(360deg);transform: rotate(360deg);}}@-webkit-keyframes SJYwTHwd6G_Hy30UPO6G_Animation{0%{-webkit-transform: rotate(0deg);transform: rotate(0deg);}100%{-webkit-transform: rotate(-360deg);transform: rotate(-360deg);}}@keyframes SJYwTHwd6G_Hy30UPO6G_Animation{0%{-webkit-transform: rotate(0deg);transform: rotate(0deg);}100%{-webkit-transform: rotate(-360deg);transform: rotate(-360deg);}}@-webkit-keyframes BJIv6SDupf_ryNjLvupf_Animation{0%{-webkit-transform: rotate(0deg);transform: rotate(0deg);}100%{-webkit-transform: rotate(-360deg);transform: rotate(-360deg);}}@keyframes BJIv6SDupf_ryNjLvupf_Animation{0%{-webkit-transform: rotate(0deg);transform: rotate(0deg);}100%{-webkit-transform: rotate(-360deg);transform: rotate(-360deg);}}@-webkit-keyframes B1qPTBD_6G_rJNlUwupz_Animation{0%{-webkit-transform: rotate(0deg);transform: rotate(0deg);}100%{-webkit-transform: rotate(360deg);transform: rotate(360deg);}}@keyframes B1qPTBD_6G_rJNlUwupz_Animation{0%{-webkit-transform: rotate(0deg);transform: rotate(0deg);}100%{-webkit-transform: rotate(360deg);transform: rotate(360deg);}}#rkvpBwOaf *{-webkit-animation-duration: 12s;animation-duration: 12s;-webkit-animation-iteration-count: infinite;animation-iteration-count: infinite;-webkit-animation-timing-function: cubic-bezier(0, 0, 1, 1);animation-timing-function: cubic-bezier(0, 0, 1, 1);}#HJlP6HvdaM{fill: #449aea;}#SkWvpHwdpz{fill: #449aea;}#rkGv6HPdpM{fill: #449aea;}#H1XPaHwuTz{fill: #192234;}#SkNDprPd6f{fill: #449aea;}#rySwTHwuaG{fill: #192234;}#BJIv6SDupf{fill: #192234;}#ryPwaHv_aM{fill: #449aea;}#ryODTrPOaf{fill: #192234;}#SJYwTHwd6G{fill: #449aea;}#B1qPTBD_6G{fill: #449aea;}#SJjvTSvu6f{fill: #449aea;isolation: isolate;font-size: 66.59px;font-family: STYuanti-SC-Bold, Yuanti SC;font-weight: 700;-webkit-transform: translate(69.19px, 167.29px) scale(1.12, 1);transform: translate(69.19px, 167.29px) scale(1.12, 1);-webkit-animation-name: SJjvTSvu6f_Animation;animation-name: SJjvTSvu6f_Animation;-webkit-transform-origin: 50% 50%;transform-origin: 50% 50%;transform-box: fill-box;opacity: 1;}#B1qPTBD_6G_rJNlUwupz{-webkit-transform-origin: 50% 50%;transform-origin: 50% 50%;transform-box: fill-box;-webkit-transform: rotate(0deg);transform: rotate(0deg);-webkit-animation-name: B1qPTBD_6G_rJNlUwupz_Animation;animation-name: B1qPTBD_6G_rJNlUwupz_Animation;}#BJIv6SDupf_ryNjLvupf{-webkit-transform-origin: 50% 50%;transform-origin: 50% 50%;transform-box: fill-box;-webkit-transform: rotate(0deg);transform: rotate(0deg);-webkit-animation-name: BJIv6SDupf_ryNjLvupf_Animation;animation-name: BJIv6SDupf_ryNjLvupf_Animation;}#SJYwTHwd6G_Hy30UPO6G{-webkit-animation-name: SJYwTHwd6G_Hy30UPO6G_Animation;animation-name: SJYwTHwd6G_Hy30UPO6G_Animation;-webkit-transform-origin: 50% 50%;transform-origin: 50% 50%;transform-box: fill-box;-webkit-transform: rotate(0deg);transform: rotate(0deg);}#rySwTHwuaG_S1DMwP_6f{-webkit-animation-name: rySwTHwuaG_S1DMwP_6f_Animation;animation-name: rySwTHwuaG_S1DMwP_6f_Animation;-webkit-transform-origin: 50% 50%;transform-origin: 50% 50%;transform-box: fill-box;-webkit-transform: rotate(0deg);transform: rotate(0deg);}#SkNDprPd6f_r1mEwDuaG{-webkit-animation-name: SkNDprPd6f_r1mEwDuaG_Animation;animation-name: SkNDprPd6f_r1mEwDuaG_Animation;-webkit-transform-origin: 50% 50%;transform-origin: 50% 50%;transform-box: fill-box;-webkit-transform: rotate(0deg);transform: rotate(0deg);}#ryODTrPOaf_rJLIvP_aM{-webkit-animation-name: ryODTrPOaf_rJLIvP_aM_Animation;animation-name: ryODTrPOaf_rJLIvP_aM_Animation;-webkit-transform-origin: 50% 50%;transform-origin: 50% 50%;transform-box: fill-box;-webkit-transform: rotate(0deg);transform: rotate(0deg);}#ryPwaHv_aM_rJZYvP_pG{-webkit-animation-name: ryPwaHv_aM_rJZYvP_pG_Animation;animation-name: ryPwaHv_aM_rJZYvP_pG_Animation;-webkit-transform-origin: 50% 50%;transform-origin: 50% 50%;transform-box: fill-box;-webkit-transform: rotate(0deg);transform: rotate(0deg);}#SJjvTSvu6f_BkliDD_Tz{-webkit-transform-origin: 50% 50%;transform-origin: 50% 50%;transform-box: fill-box;-webkit-transform: translate(0px, 10px);transform: translate(0px, 10px);}#HJlP6HvdaM_ByKW5vdTG{-webkit-transform-origin: 50% 50%;transform-origin: 50% 50%;transform-box: fill-box;-webkit-transform: scale(1, 1);transform: scale(1, 1);-webkit-animation-name: HJlP6HvdaM_ByKW5vdTG_Animation;animation-name: HJlP6HvdaM_ByKW5vdTG_Animation;}#SkWvpHwdpz_B1Yi9D_pM{-webkit-transform-origin: 50% 50%;transform-origin: 50% 50%;transform-box: fill-box;-webkit-transform: translate(0px, 0px);transform: translate(0px, 0px);}#SkWvpHwdpz_BJbn5Du6z{-webkit-transform-origin: 50% 50%;transform-origin: 50% 50%;transform-box: fill-box;-webkit-transform: scale(1, 1);transform: scale(1, 1);-webkit-animation-name: SkWvpHwdpz_BJbn5Du6z_Animation;animation-name: SkWvpHwdpz_BJbn5Du6z_Animation;}#rkGv6HPdpM_BkzSjDu6f{-webkit-animation-name: rkGv6HPdpM_BkzSjDu6f_Animation;animation-name: rkGv6HPdpM_BkzSjDu6f_Animation;-webkit-transform-origin: 50% 50%;transform-origin: 50% 50%;transform-box: fill-box;-webkit-transform: scale(1, 1);transform: scale(1, 1);}#H1XPaHwuTz_Sy7OiP_6G{-webkit-animation-name: H1XPaHwuTz_Sy7OiP_6G_Animation;animation-name: H1XPaHwuTz_Sy7OiP_6G_Animation;-webkit-transform-origin: 50% 50%;transform-origin: 50% 50%;transform-box: fill-box;-webkit-transform: scale(1, 1);transform: scale(1, 1);}#SJjvTSvu6f_rJ1O3DdTG{-webkit-animation-name: SJjvTSvu6f_rJ1O3DdTG_Animation;animation-name: SJjvTSvu6f_rJ1O3DdTG_Animation;-webkit-transform-origin: 50% 50%;transform-origin: 50% 50%;transform-box: fill-box;-webkit-transform: translate(4px, 0px);transform: translate(4px, 0px);}
    </style>
    <defs/>
    <title>

        齿轮-01

    </title>
    <g id="HJlP6HvdaM_ByKW5vdTG" data-animator-group="true" data-animator-type="2">
        <rect x="102.31" y="311.75" width="98.57" height="20.05" rx="8.15" ry="8.15" id="HJlP6HvdaM"/>
    </g>
    <g id="SkWvpHwdpz_BJbn5Du6z" data-animator-group="true" data-animator-type="2">
        <path d="M110.46,333.17h82.27a8.15,8.15,0,0,1,8.15,8.15v3.75a8.14,8.14,0,0,1-8.15,8.13H110.46a8.15,8.15,0,0,1-8.15-8.15V341.3A8.15,8.15,0,0,1,110.46,333.17Z" id="SkWvpHwdpz"/>
    </g>
    <g id="rkGv6HPdpM_BkzSjDu6f" data-animator-group="true" data-animator-type="2">
        <rect x="106.96" y="354.59" width="89.26" height="20.05" rx="8.15" ry="8.15" id="rkGv6HPdpM"/>
    </g>
    <g id="H1XPaHwuTz_Sy7OiP_6G" data-animator-group="true" data-animator-type="2">
        <rect x="125.59" y="376.13" width="52" height="20.05" rx="8.15" ry="8.15" id="H1XPaHwuTz"/>
    </g>
    <g id="SkNDprPd6f_r1mEwDuaG" data-animator-group="true" data-animator-type="1">
        <path d="M167.58,290.27c.12-.24.23-.46.34-.73a9.36,9.36,0,0,0,.37-1.17l3.75-.66a12.81,12.81,0,0,0-.14-4l-3.79-.39a9,9,0,0,0-.84-1.84l2.18-3.12a12.53,12.53,0,0,0-3-2.76l-3,2.39a7,7,0,0,0-.73-.33,10.12,10.12,0,0,0-1.18-.38l-.66-3.75a12.46,12.46,0,0,0-4,.15l-.39,3.78a9.37,9.37,0,0,0-1.85.84l-3.11-2.18a12.53,12.53,0,0,0-2.76,3l2.39,3a7.18,7.18,0,0,0-.33.74,9.4,9.4,0,0,0-.38,1.17l-3.75.66a12.46,12.46,0,0,0,.15,4l3.78.4a9,9,0,0,0,.84,1.84l-2.18,3.11a12.57,12.57,0,0,0,3,2.77l2.95-2.4.74.34a8,8,0,0,0,1.17.37l.66,3.75a12.74,12.74,0,0,0,4-.14l.4-3.78a9,9,0,0,0,1.84-.85l3.11,2.19a12.81,12.81,0,0,0,2.77-3Zm-9.76-.22a4.23,4.23,0,1,1,5.5-2.36h0a4.23,4.23,0,0,1-5.5,2.35Z" id="SkNDprPd6f"/>
    </g>
    <g id="rySwTHwuaG_S1DMwP_6f" data-animator-group="true" data-animator-type="1">
        <path d="M148.17,301.48c.08-.17.17-.34.24-.52a5.78,5.78,0,0,0,.28-.83l2.67-.42a9,9,0,0,0-.05-2.88l-2.68-.32a6.78,6.78,0,0,0-.58-1.32l1.58-2.19a9.14,9.14,0,0,0-2.07-2l-2.13,1.67q-.26-.14-.51-.24a5.07,5.07,0,0,0-.83-.28l-.43-2.67a8.91,8.91,0,0,0-2.87,0l-.33,2.68a7.44,7.44,0,0,0-1.33.58L137,291.2a9.18,9.18,0,0,0-2,2.08l1.68,2.13c-.09.16-.17.33-.25.51a5.07,5.07,0,0,0-.28.83l-2.67.43a8.92,8.92,0,0,0,0,2.87l2.68.32a6.34,6.34,0,0,0,.59,1.33l-1.59,2.19a9.09,9.09,0,0,0,2.07,2l2.13-1.67c.16.09.34.17.51.25a8.09,8.09,0,0,0,.83.28l.43,2.67a8.71,8.71,0,0,0,2.88-.06l.31-2.68a6.31,6.31,0,0,0,1.33-.58l2.19,1.59a9.14,9.14,0,0,0,2-2.07Zm-6.92-.27a3,3,0,1,1,3.93-1.61,3,3,0,0,1-3.93,1.61h0Z" id="rySwTHwuaG"/>
    </g>
    <g id="BJIv6SDupf_ryNjLvupf" data-animator-group="true" data-animator-type="1">
        <path d="M101.72,266.83V265.7l-1.6-.55a7,7,0,0,0-.19-.69l1.11-1.29-.57-1-1.67.32h0c-.16-.17-.33-.34-.5-.49h0l.31-1.68-1-.56-1.3,1.11h0c-.22-.07-.45-.13-.68-.18h0l-.55-1.6H94l-.56,1.61h0c-.23,0-.46.11-.68.18h0l-1.29-1.11-1,.56.32,1.68h0a5.78,5.78,0,0,0-.5.49h0l-1.68-.32-.56,1,1.11,1.29a5.76,5.76,0,0,0-.19.68l-1.61.55v1.13l1.6.56c.05.24.11.47.18.7L88,269.37l.56,1,1.66-.31a6.14,6.14,0,0,0,.51.51l-.31,1.65,1,.57,1.28-1.09c.23.07.46.14.7.19l.56,1.58H95.1l.55-1.58c.24-.05.48-.12.71-.19l1.27,1.09,1-.57-.31-1.65c.18-.16.35-.33.52-.51l1.65.31.56-1-1.1-1.29a5,5,0,0,0,.19-.69Zm-7.18,2.31a2.86,2.86,0,1,1,2.86-2.86,2.86,2.86,0,0,1-2.86,2.86Z" id="BJIv6SDupf"/>
    </g>
    <g id="ryPwaHv_aM_rJZYvP_pG" data-animator-group="true" data-animator-type="1">
        <path d="M214.09,265.66v-1.13l-1.6-.56c-.05-.23-.12-.46-.19-.68l1.11-1.29-.57-1-1.67.32h0a5.66,5.66,0,0,0-.49-.49h0l.31-1.68-1-.56-1.3,1.11h0a3.9,3.9,0,0,0-.67-.18h0l-.57-1.61h-1.12l-.56,1.61h0a4,4,0,0,0-.68.18h0l-1.29-1.11-1,.56.32,1.68h0c-.18.15-.34.32-.51.49h0L201,261l-.56,1,1.1,1.29c-.07.22-.13.45-.18.68l-1.61.56v1.13l1.61.56a4.23,4.23,0,0,0,.18.7l-1.1,1.27.56,1,1.66-.32a3.58,3.58,0,0,0,.51.52l-.32,1.65,1,.57,1.27-1.09a4.35,4.35,0,0,0,.71.18l.55,1.59h1.13l.55-1.59a4.35,4.35,0,0,0,.71-.18l1.27,1.09,1-.57-.31-1.65a6.14,6.14,0,0,0,.51-.51l1.65.31.57-1-1.1-1.28a5.38,5.38,0,0,0,.18-.69ZM206.92,268a2.86,2.86,0,1,1,2.85-2.86,2.86,2.86,0,0,1-2.85,2.86Z" id="ryPwaHv_aM"/>
    </g>
    <g id="ryODTrPOaf_rJLIvP_aM" data-animator-group="true" data-animator-type="1">
        <path d="M211.81,284.55l-.69-3.25-5-.64a20.14,20.14,0,0,0-.95-1.85l2.4-4.39L205.4,272l-4.64,1.92h0a15,15,0,0,0-1.73-1.11h0l-.12-5-3.16-1-3.05,4h0a16,16,0,0,0-2.07-.11h0l-2.61-4.3-3.23.68-.64,5h0a17.69,17.69,0,0,0-1.85.92h0l-4.41-2.42-2.48,2.22,1.94,4.64h0a16.58,16.58,0,0,0-1.13,1.73h0l-5,.1-1,3.16,4,3.05a16.11,16.11,0,0,0-.11,2.08l-4.29,2.6.69,3.23,4.95.63a18.7,18.7,0,0,0,1,1.9l-2.39,4.36,2.22,2.47,4.58-1.92a15.57,15.57,0,0,0,1.8,1.19l.1,4.95,3.16,1,3-3.93a15.63,15.63,0,0,0,2.16.11l2.56,4.23,3.26-.68.63-4.91a17.41,17.41,0,0,0,1.93-1l4.33,2.37,2.47-2.22-1.91-4.58a15.42,15.42,0,0,0,1.17-1.8l5-.11,1-3.15-4-3a15.06,15.06,0,0,0,.11-2.12Zm-19.29,11a8.42,8.42,0,1,1,6.49-10h0A8.42,8.42,0,0,1,192.52,295.58Z" id="ryODTrPOaf"/>
    </g>
    <g id="SJYwTHwd6G_Hy30UPO6G" data-animator-group="true" data-animator-type="1">
        <path id="SJYwTHwd6G" d="M135.19,284.84l-.81-3.23-5-.46a16.66,16.66,0,0,0-1-1.85l2.24-4.48-2.31-2.38-4.56,2.12h0a16,16,0,0,0-1.78-1.05h0l-.31-5-3.2-.92-2.89,4.12h0a17.87,17.87,0,0,0-2.07,0h0l-2.77-4.19-3.23.81-.46,5h0a17.78,17.78,0,0,0-1.81,1h0l-4.48-2.21-2.39,2.3,2.12,4.57h0a19.71,19.71,0,0,0-1.06,1.77h0l-5,.3-.93,3.2,4.1,2.89a18.05,18.05,0,0,0,0,2.08L93.34,292l.82,3.23,5,.44a18.4,18.4,0,0,0,1,1.84L98,301.94l2.31,2.39,4.5-2.1a13.83,13.83,0,0,0,1.84,1.11l.29,5,3.21.92,2.84-4a15.58,15.58,0,0,0,2.16,0l2.73,4.12,3.23-.81.46-4.93a17.45,17.45,0,0,0,1.89-1.05l4.42,2.21,2.38-2.3-2.08-4.51a15.42,15.42,0,0,0,1.1-1.84l4.95-.31.92-3.19-4.07-2.87a16.65,16.65,0,0,0,0-2.12Zm-18.84,11.77a8.42,8.42,0,1,1,6.09-10.24v0A8.42,8.42,0,0,1,116.35,296.61Z"/>
    </g>
    <g id="B1qPTBD_6G_rJNlUwupz" data-animator-group="true" data-animator-type="1">
        <path id="B1qPTBD_6G" d="M262.2,149.93l15.52-2q0-5-.38-9.79l-15.63-.82q-.36-3.66-.93-7.24l14.92-4.71q-.87-4.84-2.12-9.56l-15.52,2c-.66-2.34-1.41-4.66-2.22-6.92l13.84-7.3q-1.74-4.6-3.81-9L251,99.31c-1.07-2.18-2.21-4.31-3.41-6.41l12.3-9.64c-1.69-2.82-3.47-5.56-5.37-8.23l-13.83,7.33c-1.44-1.94-2.94-3.84-4.5-5.68L246.53,65q-3.22-3.69-6.75-7.14l-12.3,9.68c-1.75-1.65-3.56-3.25-5.41-4.79l8.13-13.35q-3.82-3.06-7.91-5.84l-10.4,11.7q-3-2-6.16-3.74l5.61-14.6q-4.31-2.34-8.83-4.33L194.39,46c-2.2-.93-4.44-1.78-6.72-2.58L190.58,28q-4.65-1.51-9.46-2.68L175.51,40c-2.3-.51-4.68-1-7.06-1.33L168.58,23q-4.86-.65-9.82-.92l-2.89,15.37c-1.45-.05-2.91-.09-4.37-.09l-2.81,0L146,22q-5,.21-9.83.8l-.1,15.64q-3.58.5-7.08,1.22l-5.38-14.73q-4.83,1.08-9.52,2.54l2.69,15.41c-2.28.76-4.53,1.58-6.75,2.48l-7.91-13.51c-3,1.29-6,2.7-8.91,4.21l5.4,14.68q-3.17,1.73-6.2,3.65L82.25,42.52c-2.75,1.81-5.42,3.71-8,5.73l7.92,13.48c-1.87,1.5-3.68,3.06-5.45,4.68L64.55,56.56Q61,60,57.69,63.61l10.2,11.85q-2.36,2.72-4.54,5.59L49.63,73.52q-2.9,4-5.5,8.15l12.16,9.84q-1.84,3.09-3.5,6.32L38,92.87q-2.14,4.41-4,9l13.73,7.51c-.84,2.26-1.61,4.54-2.31,6.86L29.92,114c-.88,3.13-1.64,6.32-2.27,9.55l14.83,4.93q-.63,3.56-1,7.18l-15.64.58c-.31,3.23-.48,6.49-.53,9.8l15.49,2.2c0,2.44.09,4.86.25,7.27l-15.29,3.35q.44,4.92,1.21,9.73L42.57,168c.43,2.4,1,4.77,1.54,7.13l-14.45,6q1.29,4.77,2.93,9.35l15.27-3.38c.87,2.3,1.8,4.55,2.81,6.76L37.55,202.4q2.12,4.44,4.55,8.66l14.43-6q1.89,3.14,4,6.15L49.12,221.88q2.87,4,6,7.7l13.11-8.52c1.61,1.85,3.29,3.63,5,5.36L64,239q3.51,3.39,7.29,6.5l11.37-10.73c1.92,1.53,3.9,3,5.92,4.39l-6.92,14c2.71,1.8,5.48,3.5,8.33,5.07l9.27-12.58c2.16,1.16,4.36,2.25,6.62,3.28l-4.28,15q4.46,1.92,9.09,3.51l6.88-14c2.34.74,4.71,1.42,7.12,2l-1.54,15.6q4.72,1.09,9.58,1.81L137,257.86q3.64.48,7.38.71l1.27,15.6c2,.08,3.93.14,5.9.14,1.29,0,2.57,0,3.85-.06l1.49-15.6c2.48-.12,4.94-.33,7.38-.6l4,15.12q4.86-.66,9.6-1.66l-1.29-15.58q3.63-.84,7.15-1.92l6.67,14.15q4.67-1.5,9.14-3.36l-4.05-15.11q3.41-1.47,6.69-3.16l9.09,12.73q4.29-2.31,8.39-4.95L213,240.2q3.07-2.05,6-4.31l11.21,10.9q3.83-3.06,7.38-6.38l-9.09-12.73q2.66-2.56,5.14-5.3l13,8.72q3.23-3.69,6.14-7.58l-11.24-10.89c1.44-2,2.8-4,4.1-6.13l14.33,6.27q2.5-4.19,4.69-8.57l-13-8.7q1.58-3.33,2.94-6.76l15.22,3.61q1.69-4.56,3.06-9.28l-14.34-6.25q.94-3.52,1.66-7.14l15.62.83q.86-4.78,1.35-9.69l-15.22-3.59Q262.14,153.62,262.2,149.93Zm-9.86-1.8v1.39h.18a100.48,100.48,0,0,1-12.82,47.92l-.2-.11c-.46.8-.92,1.6-1.39,2.39l.2.12a101.53,101.53,0,0,1-35.07,35.08l-.19-.32-2.4,1.38.19.33a100.48,100.48,0,0,1-47.92,12.82v-.57h-2.77v.58a100.52,100.52,0,0,1-47.93-12.82l.39-.67c-.81-.45-1.6-.91-2.4-1.38l-.38.66a101.39,101.39,0,0,1-35.08-35.05l.79-.46c-.46-.79-.93-1.59-1.39-2.4l-.79.46a100.48,100.48,0,0,1-12.82-47.92h1v-2.77h-1A100.48,100.48,0,0,1,63.36,98.87l.79.46c.46-.81.93-1.61,1.39-2.4l-.79-.46A101.39,101.39,0,0,1,99.82,61.35l.38.66c.79-.47,1.59-.93,2.39-1.38l-.38-.67a100.61,100.61,0,0,1,47.93-12.82v.58h2.76v-.57A100.44,100.44,0,0,1,200.82,60l-.18.33c.8.45,1.6.91,2.39,1.38l.19-.31A101.39,101.39,0,0,1,238.3,96.44l-.2.11q.69,1.19,1.38,2.4l.2-.12a100.61,100.61,0,0,1,12.83,47.92h-.19C252.33,147.2,252.34,147.67,252.34,148.13Z"/>
    </g>
    <g id="SJjvTSvu6f_rJ1O3DdTG" data-animator-group="true" data-animator-type="0">
        <text id="SJjvTSvu6f">

        ukelli

        </text>
    </g>
    <script>
        (function(){var a=document.querySelector('#rkvpBwOaf'),b=a.querySelectorAll('style'),c=function(d){b.forEach(function(f){var g=f.textContent;g&amp;&amp;(f.textContent=g.replace(/transform-box:[^;\r\n]*/gi,'transform-box: '+d))})};c('initial'),window.requestAnimationFrame(function(){return c('fill-box')})})();
    </script>
</svg>
